<svg width="90" height="35" viewBox="0 0 90 35" fill="none" xmlns="http://www.w3.org/2000/svg">
<path d="M37.88 18.06C38.44 18.1133 38.9533 18.2267 39.42 18.4C39.9 18.56 40.3133 18.78 40.66 19.06C41.0067 19.3267 41.2733 19.6467 41.46 20.02C41.66 20.3933 41.76 20.8067 41.76 21.26C41.76 21.8733 41.64 22.4133 41.4 22.88C41.1733 23.3467 40.8467 23.74 40.42 24.06C40.0067 24.3667 39.5 24.6 38.9 24.76C38.3 24.92 37.6333 25 36.9 25H33.44C33.2 25 32.9267 25 32.62 25C32.3267 25.0133 32.0467 25.0333 31.78 25.06C31.62 25.0733 31.46 25.08 31.3 25.08C31.14 25.0933 30.9867 25.1 30.84 25.1L30.82 24.96C30.8067 24.92 30.8 24.8867 30.8 24.86C30.8 24.82 30.8 24.7867 30.8 24.76C30.8 24.6133 30.82 24.52 30.86 24.48C30.9133 24.4267 30.9733 24.3933 31.04 24.38C31.5067 24.3133 31.8333 24.22 32.02 24.1C32.22 23.98 32.32 23.7867 32.32 23.52V13.5C32.32 13.2333 32.2333 13.0467 32.06 12.94C31.8867 12.82 31.5467 12.72 31.04 12.64C30.9333 12.6133 30.8667 12.5667 30.84 12.5C30.8133 12.42 30.8 12.3267 30.8 12.22C30.8 12.1933 30.8 12.1667 30.8 12.14C30.8 12.1 30.8067 12.0667 30.82 12.04C30.82 11.9867 30.8267 11.94 30.84 11.9C31.24 11.9267 31.6867 11.9533 32.18 11.98C32.6867 11.9933 33.1 12 33.42 12H36.18C37.0333 12 37.74 12.0867 38.3 12.26C38.86 12.42 39.3067 12.6467 39.64 12.94C39.9733 13.2333 40.2067 13.5733 40.34 13.96C40.4867 14.3333 40.56 14.7267 40.56 15.14C40.56 15.9133 40.3067 16.5333 39.8 17C39.2933 17.4533 38.6533 17.7867 37.88 18V18.06ZM34.84 23.32C34.84 23.6267 34.98 23.8267 35.26 23.92C35.5533 24 35.8867 24.04 36.26 24.04C37.18 24.04 37.8667 23.8467 38.32 23.46C38.7733 23.06 39 22.42 39 21.54C39 21.06 38.9133 20.64 38.74 20.28C38.58 19.92 38.36 19.6267 38.08 19.4C37.8 19.16 37.4733 18.98 37.1 18.86C36.7267 18.74 36.3333 18.68 35.92 18.68H34.84V23.32ZM35.16 17.68C35.68 17.68 36.1133 17.6133 36.46 17.48C36.8067 17.3467 37.08 17.1667 37.28 16.94C37.4933 16.7 37.64 16.4333 37.72 16.14C37.8133 15.8467 37.86 15.54 37.86 15.22C37.86 14.9133 37.8067 14.6267 37.7 14.36C37.6067 14.08 37.4533 13.84 37.24 13.64C37.0267 13.44 36.7467 13.2867 36.4 13.18C36.0533 13.06 35.64 13 35.16 13H34.84V17.68H35.16Z" fill="white"/>
<path d="M44.0633 18.18C44.0633 17.86 44.0099 17.6267 43.9033 17.48C43.8099 17.3333 43.5366 17.2333 43.0833 17.18C42.8966 17.14 42.8033 17.0467 42.8033 16.9C42.8033 16.86 42.8033 16.8067 42.8033 16.74C42.8033 16.6733 42.8166 16.6067 42.8433 16.54C42.9233 16.54 43.0366 16.54 43.1833 16.54C43.3299 16.5267 43.4833 16.52 43.6433 16.52C43.8033 16.5067 43.9633 16.4933 44.1233 16.48C44.2966 16.4667 44.4499 16.4467 44.5833 16.42C44.8899 16.38 45.1833 16.3333 45.4633 16.28C45.7433 16.2133 45.9366 16.18 46.0433 16.18C46.1633 16.18 46.2366 16.2067 46.2633 16.26C46.3033 16.3133 46.3233 16.3867 46.3233 16.48V21.6C46.3233 22.3733 46.4166 22.9133 46.6033 23.22C46.8033 23.5133 47.1166 23.66 47.5433 23.66C48.1433 23.66 48.6566 23.46 49.0833 23.06C49.5099 22.66 49.7233 22.0533 49.7233 21.24V18.18C49.7233 18.02 49.7099 17.8867 49.6833 17.78C49.6699 17.66 49.6299 17.56 49.5633 17.48C49.4966 17.4 49.3966 17.34 49.2633 17.3C49.1433 17.2467 48.9699 17.2067 48.7433 17.18C48.6633 17.1533 48.5899 17.1267 48.5233 17.1C48.4699 17.0733 48.4433 17.0067 48.4433 16.9C48.4433 16.86 48.4433 16.8067 48.4433 16.74C48.4566 16.6733 48.4699 16.6067 48.4833 16.54C48.5766 16.54 48.6899 16.54 48.8233 16.54C48.9699 16.5267 49.1233 16.52 49.2833 16.52C49.4566 16.5067 49.6233 16.4933 49.7833 16.48C49.9566 16.4667 50.1099 16.4467 50.2433 16.42C50.5366 16.38 50.8233 16.3333 51.1033 16.28C51.3966 16.2133 51.5966 16.18 51.7033 16.18C51.8899 16.18 51.9833 16.28 51.9833 16.48V23.14C51.9833 23.3 51.9899 23.44 52.0033 23.56C52.0299 23.6667 52.0766 23.76 52.1433 23.84C52.2099 23.92 52.3099 23.9867 52.4433 24.04C52.5766 24.08 52.7566 24.1133 52.9833 24.14C53.1566 24.1533 53.2433 24.24 53.2433 24.4C53.2433 24.4667 53.2433 24.5333 53.2433 24.6C53.2433 24.6667 53.2299 24.72 53.2033 24.76C53.0299 24.76 52.7566 24.7733 52.3833 24.8C52.0233 24.8133 51.7166 24.84 51.4633 24.88C51.1699 24.92 50.8766 24.9667 50.5833 25.02C50.3033 25.0867 50.1099 25.12 50.0033 25.12C49.8833 25.12 49.8033 25.0933 49.7633 25.04C49.7366 25 49.7233 24.9267 49.7233 24.82V23.38C49.2966 23.94 48.8233 24.3933 48.3033 24.74C47.7833 25.0733 47.2433 25.24 46.6833 25.24C45.8699 25.24 45.2299 25.02 44.7633 24.58C44.2966 24.1267 44.0633 23.4533 44.0633 22.56V18.18Z" fill="white"/>
<path d="M58.8589 22.08C59.1789 21.2933 59.4456 20.64 59.6589 20.12C59.8856 19.6 60.0656 19.1733 60.1989 18.84C60.3322 18.5067 60.4256 18.2467 60.4789 18.06C60.5456 17.86 60.5789 17.6933 60.5789 17.56C60.5789 17.2933 60.3656 17.1067 59.9389 17C59.8456 16.9733 59.7789 16.9467 59.7389 16.92C59.6989 16.88 59.6789 16.8067 59.6789 16.7C59.6789 16.66 59.6856 16.6133 59.6989 16.56C59.7122 16.4933 59.7256 16.4267 59.7389 16.36C60.2722 16.4 60.8522 16.42 61.4789 16.42C62.0389 16.42 62.5522 16.4 63.0189 16.36C63.0456 16.4267 63.0589 16.5 63.0589 16.58C63.0722 16.66 63.0789 16.7133 63.0789 16.74C63.0789 16.8867 62.9922 16.98 62.8189 17.02C62.6322 17.06 62.4789 17.1 62.3589 17.14C62.2522 17.1667 62.1589 17.22 62.0789 17.3C61.9989 17.3667 61.9256 17.46 61.8589 17.58C61.7922 17.6867 61.7122 17.84 61.6189 18.04L57.4189 27.86C57.1122 28.5667 56.6789 29.0667 56.1189 29.36C55.5722 29.6533 54.9789 29.8 54.3389 29.8C54.2189 29.8 54.1322 29.7667 54.0789 29.7C54.0256 29.6333 53.9989 29.56 53.9989 29.48C53.9989 29.0267 54.0789 28.6333 54.2389 28.3C54.3989 27.98 54.5856 27.82 54.7989 27.82C54.9189 27.82 55.0256 27.8333 55.1189 27.86C55.2122 27.8867 55.3456 27.9 55.5189 27.9C55.8656 27.9 56.1256 27.8267 56.2989 27.68C56.4856 27.5467 56.6456 27.3267 56.7789 27.02L57.6789 24.86L54.6189 18.04C54.5256 17.84 54.4456 17.6867 54.3789 17.58C54.3122 17.46 54.2389 17.3667 54.1589 17.3C54.0789 17.2333 53.9856 17.1867 53.8789 17.16C53.7722 17.12 53.6322 17.08 53.4589 17.04C53.2856 17 53.1989 16.8867 53.1989 16.7C53.1989 16.62 53.2189 16.5067 53.2589 16.36C53.5789 16.3867 53.9189 16.4067 54.2789 16.42C54.6389 16.42 55.0789 16.42 55.5989 16.42C56.0789 16.42 56.4922 16.42 56.8389 16.42C57.1856 16.4067 57.5322 16.3867 57.8789 16.36C57.9189 16.5067 57.9389 16.62 57.9389 16.7C57.9389 16.8733 57.8522 16.9733 57.6789 17C57.3589 17.04 57.1522 17.1 57.0589 17.18C56.9789 17.2467 56.9389 17.3333 56.9389 17.44C56.9389 17.5067 56.9722 17.6467 57.0389 17.86C57.1056 18.0733 57.2522 18.4333 57.4789 18.94L58.8589 22.08Z" fill="white"/>
<path d="M65.3208 13.5C65.3208 13.3667 65.3075 13.26 65.2808 13.18C65.2541 13.0867 65.2008 13.0067 65.1208 12.94C65.0408 12.8733 64.9141 12.82 64.7408 12.78C64.5808 12.7267 64.3608 12.68 64.0808 12.64C63.9474 12.6 63.8808 12.4867 63.8808 12.3C63.8808 12.26 63.8808 12.2 63.8808 12.12C63.8808 12.04 63.8941 11.9667 63.9208 11.9C64.3475 11.9267 64.8008 11.9533 65.2808 11.98C65.7741 11.9933 66.2141 12 66.6008 12C66.9741 12 67.4008 11.9933 67.8808 11.98C68.3608 11.9533 68.8141 11.9267 69.2408 11.9C69.2541 11.9667 69.2608 12.04 69.2608 12.12C69.2741 12.2 69.2808 12.26 69.2808 12.3C69.2808 12.4867 69.2141 12.6 69.0808 12.64C68.8008 12.68 68.5741 12.7267 68.4008 12.78C68.2408 12.82 68.1141 12.8733 68.0208 12.94C67.9408 13.0067 67.8874 13.0867 67.8608 13.18C67.8474 13.26 67.8408 13.3667 67.8408 13.5V22.16C67.8408 23.0933 67.7741 23.8933 67.6408 24.56C67.5208 25.2133 67.3075 25.8067 67.0008 26.34C66.6941 26.8733 66.2674 27.3733 65.7208 27.84C65.1874 28.32 64.5141 28.84 63.7008 29.4C63.5941 29.3067 63.5008 29.22 63.4208 29.14C63.3541 29.06 63.3208 28.98 63.3208 28.9C63.3208 28.7933 63.3541 28.7067 63.4208 28.64C63.7941 28.28 64.1008 27.9333 64.3408 27.6C64.5808 27.2667 64.7741 26.92 64.9208 26.56C65.0675 26.2133 65.1674 25.84 65.2208 25.44C65.2874 25.0533 65.3208 24.6267 65.3208 24.16V13.5Z" fill="white"/>
<path d="M69.8503 20.72C69.8503 20.0667 69.9636 19.4667 70.1903 18.92C70.4303 18.36 70.757 17.88 71.1703 17.48C71.5836 17.0667 72.077 16.7467 72.6503 16.52C73.2236 16.2933 73.8503 16.18 74.5303 16.18C75.237 16.18 75.877 16.2933 76.4503 16.52C77.0236 16.7467 77.517 17.0667 77.9303 17.48C78.3436 17.88 78.657 18.36 78.8703 18.92C79.097 19.4667 79.2103 20.0667 79.2103 20.72C79.2103 21.3733 79.0903 21.98 78.8503 22.54C78.6236 23.0867 78.297 23.56 77.8703 23.96C77.457 24.36 76.9636 24.6733 76.3903 24.9C75.817 25.1267 75.1903 25.24 74.5103 25.24C73.8036 25.24 73.1636 25.1267 72.5903 24.9C72.017 24.6733 71.5236 24.36 71.1103 23.96C70.7103 23.56 70.397 23.0867 70.1703 22.54C69.957 21.98 69.8503 21.3733 69.8503 20.72ZM72.3703 20.32C72.3703 21.5467 72.5703 22.5267 72.9703 23.26C73.3836 23.9933 73.9703 24.36 74.7303 24.36C75.437 24.36 75.937 24.08 76.2303 23.52C76.537 22.9467 76.6903 22.1467 76.6903 21.12C76.6903 19.9067 76.4836 18.9267 76.0703 18.18C75.657 17.4333 75.077 17.06 74.3303 17.06C73.6236 17.06 73.117 17.3533 72.8103 17.94C72.517 18.5133 72.3703 19.3067 72.3703 20.32Z" fill="white"/>
<path d="M85.0823 22.08C85.4023 21.2933 85.669 20.64 85.8823 20.12C86.109 19.6 86.289 19.1733 86.4223 18.84C86.5557 18.5067 86.649 18.2467 86.7023 18.06C86.769 17.86 86.8023 17.6933 86.8023 17.56C86.8023 17.2933 86.589 17.1067 86.1623 17C86.069 16.9733 86.0023 16.9467 85.9623 16.92C85.9223 16.88 85.9023 16.8067 85.9023 16.7C85.9023 16.66 85.909 16.6133 85.9223 16.56C85.9357 16.4933 85.949 16.4267 85.9623 16.36C86.4957 16.4 87.0757 16.42 87.7023 16.42C88.2623 16.42 88.7757 16.4 89.2423 16.36C89.269 16.4267 89.2823 16.5 89.2823 16.58C89.2957 16.66 89.3023 16.7133 89.3023 16.74C89.3023 16.8867 89.2157 16.98 89.0423 17.02C88.8557 17.06 88.7023 17.1 88.5823 17.14C88.4757 17.1667 88.3823 17.22 88.3023 17.3C88.2223 17.3667 88.149 17.46 88.0823 17.58C88.0157 17.6867 87.9357 17.84 87.8423 18.04L83.6423 27.86C83.3357 28.5667 82.9023 29.0667 82.3423 29.36C81.7957 29.6533 81.2023 29.8 80.5623 29.8C80.4423 29.8 80.3557 29.7667 80.3023 29.7C80.249 29.6333 80.2223 29.56 80.2223 29.48C80.2223 29.0267 80.3023 28.6333 80.4623 28.3C80.6223 27.98 80.809 27.82 81.0223 27.82C81.1423 27.82 81.249 27.8333 81.3423 27.86C81.4357 27.8867 81.569 27.9 81.7423 27.9C82.089 27.9 82.349 27.8267 82.5223 27.68C82.709 27.5467 82.869 27.3267 83.0023 27.02L83.9023 24.86L80.8423 18.04C80.749 17.84 80.669 17.6867 80.6023 17.58C80.5357 17.46 80.4623 17.3667 80.3823 17.3C80.3023 17.2333 80.209 17.1867 80.1023 17.16C79.9957 17.12 79.8557 17.08 79.6823 17.04C79.509 17 79.4223 16.8867 79.4223 16.7C79.4223 16.62 79.4423 16.5067 79.4823 16.36C79.8023 16.3867 80.1423 16.4067 80.5023 16.42C80.8623 16.42 81.3023 16.42 81.8223 16.42C82.3023 16.42 82.7157 16.42 83.0623 16.42C83.409 16.4067 83.7557 16.3867 84.1023 16.36C84.1423 16.5067 84.1623 16.62 84.1623 16.7C84.1623 16.8733 84.0757 16.9733 83.9023 17C83.5823 17.04 83.3757 17.1 83.2823 17.18C83.2023 17.2467 83.1623 17.3333 83.1623 17.44C83.1623 17.5067 83.1957 17.6467 83.2623 17.86C83.329 18.0733 83.4757 18.4333 83.7023 18.94L85.0823 22.08Z" fill="white"/>
<path d="M12.1123 6.16405V4.8282C12.1123 3.49971 12.8348 2.29266 13.9919 1.42049C14.0553 1.37265 14.1237 1.32481 14.1871 1.28065C14.0797 1.27697 13.9723 1.27329 13.8649 1.27329C12.1221 1.27329 10.5354 1.81058 9.38324 2.67906C8.23108 3.54755 7.51831 4.74356 7.51831 6.05733V6.16405H12.1123ZM10.6233 15.7358C11.3263 15.7358 11.8975 16.1885 11.8975 16.7478C11.8975 17.3072 11.3263 17.7598 10.6233 17.7598C9.92026 17.7598 9.34906 17.3072 9.34906 16.7478C9.34906 16.1885 9.92026 15.7358 10.6233 15.7358ZM16.7307 15.7358C17.4337 15.7358 18.0049 16.1885 18.0049 16.7478C18.0049 17.3072 17.4337 17.7598 16.7307 17.7598C16.0277 17.7598 15.4565 17.3072 15.4565 16.7478C15.4565 16.1885 16.0277 15.7358 16.7307 15.7358ZM19.0985 19.173C19.2254 18.8859 19.6355 18.7277 20.0212 18.8234C20.402 18.919 20.6119 19.2282 20.4849 19.5189C20.0016 20.6155 19.0692 21.5576 17.8487 22.22C16.6623 22.864 15.2075 23.2431 13.6306 23.2431V23.2468C12.1123 23.2468 10.7014 22.8898 9.53458 22.2863C8.33849 21.6643 7.40114 20.7738 6.87876 19.7323C6.73719 19.449 6.92758 19.1288 7.3035 19.0221C7.67941 18.9154 8.10415 19.0589 8.24573 19.3422C8.66558 20.1703 9.40765 20.8805 10.3645 21.3773C11.2921 21.8594 12.415 22.1391 13.6306 22.1391V22.1428C14.8853 22.1428 16.0472 21.841 16.9943 21.3258C17.9658 20.7959 18.7128 20.0451 19.0985 19.173ZM16.0033 0.390083C16.7746 0.139841 17.6241 0 18.5175 0C20.2799 0 21.8812 0.544645 23.0382 1.41681C24.2002 2.29266 24.9178 3.49603 24.9178 4.82452V6.16037H30V32.2408H27.0073V34.2206C18.0049 34.2206 9.00244 34.2206 0 34.2206V8.14023H2.99268V6.16037H6.05858V6.05365C6.05858 4.43444 6.93735 2.96243 8.35313 1.89522C9.76892 0.828007 11.7217 0.165601 13.8698 0.165601C14.607 0.165601 15.3247 0.242882 16.0033 0.390083ZM23.4532 6.16405V4.8282C23.4532 3.80515 22.8967 2.8741 22.0033 2.20066C21.1098 1.52721 19.8747 1.10769 18.5175 1.10769C18.3808 1.10769 18.249 1.11137 18.1172 1.11873C18.5761 1.34321 19.0057 1.60449 19.3914 1.89522C20.8072 2.96243 21.6859 4.43444 21.6859 6.05365V6.16037H23.4581L23.4532 6.16405ZM16.1107 1.58241C15.7152 1.7517 15.3491 1.95778 15.0317 2.20066C14.1383 2.8741 13.5818 3.80515 13.5818 4.8282V6.16405H20.2164V6.05733C20.2164 4.74356 19.5037 3.54755 18.3515 2.67906C17.7217 2.20434 16.9601 1.8253 16.1107 1.58241ZM27.0122 31.1441H28.5403V7.27174H21.6859V8.14759H27.0122V31.1441ZM20.2213 7.27174H7.52807V8.14759H20.2213V7.27174ZM6.06347 7.27174H4.46216V8.14759H6.06347V7.27174ZM25.5525 9.2516H21.6908V12.8728C21.6908 13.1782 21.3637 13.4248 20.9585 13.4248C20.5533 13.4248 20.2262 13.1782 20.2262 12.8728V9.2516H7.53295V12.8728C7.53295 13.1782 7.20586 13.4248 6.80065 13.4248C6.39544 13.4248 6.06835 13.1782 6.06835 12.8728V9.2516H1.47437V29.3262H25.5525V9.2516ZM1.47437 30.4302V33.124H25.5525V30.4302H1.47437Z" fill="white"/>
</svg>
