<svg width="56" height="45" viewBox="0 0 56 45" fill="none" xmlns="http://www.w3.org/2000/svg">
<path d="M0 5C0 2.23858 2.23858 0 5 0H51C53.7614 0 56 2.23858 56 5V40C56 42.7614 53.7614 45 51 45H5C2.23858 45 0 42.7614 0 40V5Z" fill="#7B8A8B"/>
<path d="M25.1123 11.1641V9.8282C25.1123 8.49971 25.8348 7.29266 26.9919 6.42049C27.0553 6.37265 27.1237 6.32481 27.1871 6.28065C27.0797 6.27697 26.9723 6.27329 26.8649 6.27329C25.1221 6.27329 23.5354 6.81058 22.3832 7.67906C21.2311 8.54755 20.5183 9.74356 20.5183 11.0573V11.1641H25.1123ZM23.6233 20.7358C24.3263 20.7358 24.8975 21.1885 24.8975 21.7478C24.8975 22.3072 24.3263 22.7598 23.6233 22.7598C22.9203 22.7598 22.3491 22.3072 22.3491 21.7478C22.3491 21.1885 22.9203 20.7358 23.6233 20.7358ZM29.7307 20.7358C30.4337 20.7358 31.0049 21.1885 31.0049 21.7478C31.0049 22.3072 30.4337 22.7598 29.7307 22.7598C29.0277 22.7598 28.4565 22.3072 28.4565 21.7478C28.4565 21.1885 29.0277 20.7358 29.7307 20.7358ZM32.0985 24.173C32.2254 23.8859 32.6355 23.7277 33.0212 23.8234C33.402 23.919 33.6119 24.2282 33.4849 24.5189C33.0016 25.6155 32.0692 26.5576 30.8487 27.22C29.6623 27.864 28.2075 28.2431 26.6306 28.2431V28.2468C25.1123 28.2468 23.7014 27.8898 22.5346 27.2863C21.3385 26.6643 20.4011 25.7738 19.8788 24.7323C19.7372 24.449 19.9276 24.1288 20.3035 24.0221C20.6794 23.9154 21.1042 24.0589 21.2457 24.3422C21.6656 25.1703 22.4076 25.8805 23.3645 26.3773C24.2921 26.8594 25.415 27.1391 26.6306 27.1391V27.1428C27.8853 27.1428 29.0472 26.841 29.9943 26.3258C30.9658 25.7959 31.7128 25.0451 32.0985 24.173ZM29.0033 5.39008C29.7746 5.13984 30.6241 5 31.5175 5C33.2799 5 34.8812 5.54464 36.0382 6.41681C37.2002 7.29266 37.9178 8.49603 37.9178 9.82452V11.1604H43V37.2408H40.0073V39.2206C31.0049 39.2206 22.0024 39.2206 13 39.2206V13.1402H15.9927V11.1604H19.0586V11.0537C19.0586 9.43444 19.9373 7.96243 21.3531 6.89522C22.7689 5.82801 24.7217 5.1656 26.8698 5.1656C27.607 5.1656 28.3247 5.24288 29.0033 5.39008ZM36.4532 11.1641V9.8282C36.4532 8.80515 35.8967 7.8741 35.0033 7.20066C34.1098 6.52721 32.8747 6.10769 31.5175 6.10769C31.3808 6.10769 31.249 6.11137 31.1172 6.11873C31.5761 6.34321 32.0057 6.60449 32.3914 6.89522C33.8072 7.96243 34.6859 9.43444 34.6859 11.0537V11.1604H36.4581L36.4532 11.1641ZM29.1107 6.58241C28.7152 6.7517 28.3491 6.95778 28.0317 7.20066C27.1383 7.8741 26.5818 8.80515 26.5818 9.8282V11.1641H33.2164V11.0573C33.2164 9.74356 32.5037 8.54755 31.3515 7.67906C30.7217 7.20434 29.9601 6.8253 29.1107 6.58241ZM40.0122 36.1441H41.5403V12.2717H34.6859V13.1476H40.0122V36.1441ZM33.2213 12.2717H20.5281V13.1476H33.2213V12.2717ZM19.0635 12.2717H17.4622V13.1476H19.0635V12.2717ZM38.5525 14.2516H34.6908V17.8728C34.6908 18.1782 34.3637 18.4248 33.9585 18.4248C33.5533 18.4248 33.2262 18.1782 33.2262 17.8728V14.2516H20.533V17.8728C20.533 18.1782 20.2059 18.4248 19.8007 18.4248C19.3954 18.4248 19.0683 18.1782 19.0683 17.8728V14.2516H14.4744V34.3262H38.5525V14.2516ZM14.4744 35.4302V38.124H38.5525V35.4302H14.4744Z" fill="black"/>
</svg>
